<svg xmlns="http://www.w3.org/2000/svg" xmlns:xlink="http://www.w3.org/1999/xlink" width="100" height="100" viewBox="0 0 100 100"><circle stroke="none" fill="#FFFFFF" r="48%" cx="50%" cy="50%"></circle><g transform="translate(50 50) scale(0.69 0.69) rotate(0) translate(-50 -50)" style="fill:#000000"><svg fill="#000000" xmlns:x="http://ns.adobe.com/Extensibility/1.0/" xmlns:i="http://ns.adobe.com/AdobeIllustrator/10.0/" xmlns:graph="http://ns.adobe.com/Graphs/1.0/" xmlns="http://www.w3.org/2000/svg" xmlns:xlink="http://www.w3.org/1999/xlink" version="1.1" x="0px" y="0px" viewBox="0 0 100 100" style="enable-background:new 0 0 100 100;" xml:space="preserve"><g><g i:extraneous="self"><path d="M56.4,94.8L84.3,67c3.6-3.6,3.6-9.3,0-12.9c-3.6-3.6-9.3-3.6-12.9,0L59.1,66.4V11.6c0-5-4.1-9.1-9.1-9.1s-9.1,4.1-9.1,9.1    v54.8L28.6,54.2c-3.6-3.6-9.3-3.6-12.9,0c-1.8,1.8-2.7,4.1-2.7,6.4c0,2.3,0.9,4.7,2.7,6.4l27.8,27.8c1.7,1.7,4,2.7,6.4,2.7    S54.7,96.5,56.4,94.8z"></path></g></g></svg></g></svg>