<svg height='100px' width='100px'  fill="#000000" xmlns="http://www.w3.org/2000/svg" xmlns:xlink="http://www.w3.org/1999/xlink" version="1.1" x="0px" y="0px" viewBox="0 0 100 100" enable-background="new 0 0 100 100" xml:space="preserve"><g><path d="M38.2,28.2c-2.2,2.1-2.2,5.6-0.1,7.8l13.7,14L38.2,64c-2.1,2.2-2.1,5.7,0.1,7.8l0,0c2.2,2.1,5.7,2.1,7.8-0.1L67.4,50   L46.1,28.2C43.9,26.1,40.4,26,38.2,28.2z"></path><path d="M50,5C25.2,5,5,25.2,5,50c0,24.8,20.2,45,45,45c24.8,0,45-20.2,45-45C95,25.2,74.8,5,50,5z M50,84.9   c-19.2,0-34.9-15.6-34.9-34.9c0-19.2,15.6-34.9,34.9-34.9c19.2,0,34.9,15.6,34.9,34.9C84.9,69.2,69.2,84.9,50,84.9z"></path></g></svg>