<svg height='100px' width='100px'  fill="#000000" xmlns="http://www.w3.org/2000/svg" xmlns:xlink="http://www.w3.org/1999/xlink" version="1.1" x="0px" y="0px" viewBox="0 0 100 100" enable-background="new 0 0 100 100" xml:space="preserve"><g><path d="M50,5C25.2,5,5,25.2,5,50c0,24.8,20.2,45,45,45c24.8,0,45-20.2,45-45C95,25.2,74.8,5,50,5z M50,84.9   c-19.2,0-34.9-15.6-34.9-34.9c0-19.2,15.6-34.9,34.9-34.9c19.2,0,34.9,15.6,34.9,34.9C84.9,69.2,69.2,84.9,50,84.9z"></path><path d="M50.2,62.5h-0.4c-2.8,0-5.1,2.3-5.1,5.1c0,2.8,2.3,5.1,5.1,5.1h0.4c2.8,0,5.1-2.3,5.1-5.1C55.3,64.8,53,62.5,50.2,62.5z"></path><path d="M61.7,31c-3-2.4-6.9-3.7-11.6-3.7c-4.5,0-8.3,1.3-11.3,3.7c-3,2.5-4.8,6-5.2,10.2l0,0.1c0,1.3,0.4,2.5,1.4,3.5   c0.9,0.9,2.1,1.4,3.4,1.4h0.7c2.6,0,4.7-2,4.8-4.5c0.7-4.1,2.6-5.9,6.3-5.9c1.9,0,3.4,0.5,4.5,1.5c1.1,1,1.6,2.2,1.6,3.7   c0,0.7-0.2,1.4-0.6,2.1c-0.2,0.3-0.9,1.4-3.8,3.6c-2.5,2-4.3,4-5.3,5.9c-0.3,0.6-0.6,1.2-0.8,1.8c-0.5,1.4-0.3,2.9,0.5,4.2   c0.9,1.2,2.3,2,3.8,2h0.4c2,0,3.7-1.2,4.4-3.1c0-0.1,0.1-0.3,0.2-0.5c0.1-0.1,0.1-0.2,0.2-0.4c0.2-0.4,0.9-1.5,3.9-3.8   c2.7-2.1,4.5-4.1,5.6-5.9c1.1-1.9,1.6-4,1.6-6.2C66.4,36.8,64.8,33.5,61.7,31z"></path></g></svg>